<?xml version="1.0" encoding="UTF-8"?>
<svg width="12px" height="16px" viewBox="0 0 12 16" version="1.1" xmlns="http://www.w3.org/2000/svg" xmlns:xlink="http://www.w3.org/1999/xlink">
    <!-- Generator: Sketch 53.2 (72643) - https://sketchapp.com -->
    <title>Icon Calories</title>
    <desc>Created with Sketch.</desc>
    <g id="Symbols" stroke="none" stroke-width="1" fill="none" fill-rule="evenodd">
        <g id="Others-/-recipe_fav" transform="translate(-167.000000, -321.000000)" fill="#7D8699">
            <g id="Nutrition" transform="translate(165.000000, 321.000000)">
                <g id="Icons-/-16pt-/-ic_calories">
                    <g id="ic_calories">
                        <g id="ic" transform="translate(2.000000, 0.000000)">
                            <path d="M11.9658125,9.36778125 C11.7825312,6.9815625 10.6715313,5.48621875 9.69140625,4.16665625 C8.78384375,2.94503125 8,1.89009375 8,0.33390625 C8,0.20890625 7.93,0.09465625 7.819,0.037375 C7.70765625,-0.02025 7.573875,-0.0108125 7.47265625,0.06275 C6.00065625,1.1160625 4.77246875,2.89134375 4.3434375,4.58521875 C4.04559375,5.7645 4.0061875,7.09025 4.00065625,7.96584375 C2.64128125,7.6755 2.33334375,5.642125 2.33009375,5.61996875 C2.31478125,5.5145 2.25034375,5.42271875 2.15659375,5.37259375 C2.061875,5.323125 1.95053125,5.31953125 1.8545,5.3670625 C1.78321875,5.4015625 0.1048125,6.254375 0.00715625,9.65940625 C0.0003125,9.7726875 0,9.8863125 0,9.99990625 C0,13.3079375 2.69171875,15.9995 6,15.9995 C6.0045625,15.9998125 6.0094375,16.0004687 6.01334375,15.9995 C6.01465625,15.9995 6.0159375,15.9995 6.0175625,15.9995 C9.31771875,15.9900312 12,13.3020937 12,9.99990625 C12,9.8335625 11.9658125,9.36778125 11.9658125,9.36778125 Z M6,15.332875 C4.897125,15.332875 4,14.3772187 4,13.2025 C4,13.1624687 3.9996875,13.1220937 4.00259375,13.072625 C4.0159375,12.5772187 4.11003125,12.2390312 4.21321875,12.0140937 C4.40659375,12.4294375 4.75228125,12.81125 5.3138125,12.81125 C5.4980625,12.81125 5.64715625,12.6621562 5.64715625,12.4779375 C5.64715625,12.003375 5.6569375,11.455875 5.77509375,10.96175 C5.88025,10.523625 6.13153125,10.0575 6.44990625,9.68384375 C6.5915,10.1688437 6.8675625,10.561375 7.13709375,10.9445 C7.52284375,11.492625 7.92159375,12.0593438 7.99159375,13.02575 C7.9958125,13.0830313 8.0000625,13.1406563 8.0000625,13.2025 C8,14.3771875 7.102875,15.332875 6,15.332875 Z" id="Shape"></path>
                        </g>
                    </g>
                </g>
            </g>
        </g>
    </g>
</svg>