<?xml version="1.0" encoding="UTF-8"?>
<svg width="120px" height="120px" viewBox="0 0 120 120" version="1.1" xmlns="http://www.w3.org/2000/svg" xmlns:xlink="http://www.w3.org/1999/xlink">
    <!-- Generator: Sketch 53.2 (72643) - https://sketchapp.com -->
    <title>ic_empty_saved</title>
    <desc>Created with Sketch.</desc>
    <g id="Page-1" stroke="none" stroke-width="1" fill="none" fill-rule="evenodd">
        <g id="Produits-vides" transform="translate(-128.000000, -249.000000)">
            <g id="ic_empty_saved" transform="translate(128.000000, 249.000000)">
                <g id="plate">
                    <path d="M120,60 C120,93.1375123 93.1375123,120 60,120 C26.8624877,120 0,93.1375123 0,60 C0,26.8624877 26.8624877,0 60,0 C93.1375123,0 120,26.8624877 120,60 Z" id="Path" fill="#FE9870"></path>
                    <path d="M12.0721434,60 C12.0721434,28.9004517 35.7339478,3.32794195 66.0360717,0.301208437 C64.0512084,0.102539062 62.0370483,0 60,0 C26.8624877,0 0,26.8624877 0,60 C0,93.1375123 26.8624877,120 60,120 C62.0370483,120 64.0512084,119.897461 66.0360717,119.698792 C35.7339478,116.672058 12.0721434,91.0995483 12.0721434,60 Z" id="Path" fill="#FFFFFF" opacity="0.200000003"></path>
                    <path d="M95.8547974,60 C95.8547974,79.8019409 79.8019409,95.8547974 60,95.8547974 C40.1980591,95.8547974 24.1452026,79.8019409 24.1452026,60 C24.1452026,40.1980591 40.1980591,24.1452026 60,24.1452026 C79.8019409,24.1452026 95.8547974,40.1980591 95.8547974,60 L95.8547974,60 Z" id="Path" fill="#FFFFFF"></path>
                    <path d="M36.2173463,60 C36.2173463,42.2552489 49.1088867,27.5234986 66.0360717,24.6533203 C64.0740966,24.3209838 62.05719,24.1452026 60,24.1452026 C40.1980591,24.1452026 24.1452026,40.1980591 24.1452026,60 C24.1452026,79.8019409 40.1980591,95.8547974 60,95.8547974 C62.05719,95.8547974 64.0731811,95.6790162 66.0360717,95.3466797 C49.1088867,92.4765014 36.2173463,77.7447511 36.2173463,60 L36.2173463,60 Z" id="Path" fill="#F7F7FB"></path>
                </g>
                <g id="cutlery" transform="translate(5.000000, 0.000000)">
                    <path d="M13.2449341,119.864502 C9.6221925,119.864502 6.72271734,116.859741 6.85089117,113.239746 L9.88677984,27.8283691 L16.6030884,27.8283691 L19.6380614,113.239746 C19.7671509,116.859741 16.8667603,119.864502 13.2449341,119.864502 Z" id="Path" fill="#D0D1D2"></path>
                    <path d="M6.85089117,113.239746 C6.72180187,116.859741 9.6221925,119.864502 13.2440184,119.864502 C16.8667603,119.864502 19.7662355,116.859741 19.6380614,113.239746 L17.6202394,56.4624023 L8.86871344,56.4624023 L6.85089117,113.239746 Z" id="Path" fill="#6CB6DE"></path>
                    <path d="M11.6848755,113.239746 L13.7026978,56.4624023 L8.86871344,56.4624023 L6.85089117,113.239746 C6.72180187,116.859741 9.6221925,119.864502 13.2440184,119.864502 C14.100952,119.864502 14.9157715,119.695129 15.6610106,119.390259 C13.255005,118.406982 11.5869141,116.003723 11.6848755,113.239746 Z" id="Path" fill="#61A3C7"></path>
                    <path d="M13.2449341,42.5720215 C5.99487305,42.5720215 0.1171875,35.8703613 0.1171875,27.6031495 L2.89581305,0.862426875 C2.94708258,0.372619688 3.35998547,0 3.85253906,0 L22.6364135,0 C23.1289673,0 23.54187,0.372619688 23.5931395,0.862426875 L26.3717651,27.6031495 C26.3717651,35.8703613 20.4940795,42.5720215 13.2449341,42.5720215 Z" id="Path" fill="#F2F3F3"></path>
                    <path d="M4.95208734,27.6031495 L7.81951898,0 L3.85253906,0 C3.35998547,0 2.94708258,0.372619687 2.89581305,0.862426875 L0.1171875,27.6031495 C0.1171875,35.8703613 5.99395758,42.572937 13.2449341,42.572937 C14.0707397,42.572937 14.8782349,42.4813842 15.6619263,42.3147584 C9.56726063,41.0202026 4.95208734,34.9282837 4.95208734,27.6031495 Z" id="Path" fill="#E8E9EA"></path>
                    <path d="M10.6787109,0 L10.6787109,26.3296509 C10.6787109,27.3294068 9.87030023,28.1405639 8.86779797,28.1405639 C7.86804187,28.1405639 7.05688477,27.3294068 7.05688477,26.3296509 L7.05688477,0 L10.6787109,0 Z" id="Path" fill="#D0D1D2"></path>
                    <path d="M19.4311523,0 L19.4311523,26.3296509 C19.4311523,27.3294068 18.619995,28.1405639 17.6202394,28.1405639 C16.6204833,28.1405639 15.8093262,27.3294068 15.8093262,26.3296509 L15.8093262,0 L19.4311523,0 Z" id="Path" fill="#D0D1D2"></path>
                    <path d="M106.615845,119.961731 C103.514038,119.961731 101,117.447693 101,114.346802 L101,42 L110.121399,42 L112.230774,73.5582277 L112.230774,114.345886 C112.230774,117.447693 109.716736,119.961731 106.615845,119.961731 L106.615845,119.961731 Z" id="Path" fill="#F27F6F"></path>
                    <path d="M106.024414,114.346802 L106.024414,42 L101,42 L101,114.346802 C101,117.447693 103.514038,119.961731 106.614929,119.961731 C107.518555,119.961731 108.37091,119.747498 109.127136,119.368469 C107.287842,118.446533 106.024414,116.544067 106.024414,114.346802 L106.024414,114.346802 Z" id="Path" fill="#DF7566"></path>
                    <path d="M111.907898,73.6479101 L93.8189087,73.6479101 C92.2615968,73.6479101 91,72.3863136 91,70.8290016 L91,35.7588111 C91,21.6249 98.3580932,8.51088614 110.420166,1.14455325 C111.072021,0.747214269 111.907898,1.21596427 111.907898,1.97859872 L111.907898,73.6479101 Z" id="Path" fill="#F2F3F3"></path>
                    <path d="M95.8348998,70.8293879 L95.8348998,35.7591973 C95.8348998,22.9848444 101.846252,11.0445366 111.908813,3.42734913 L111.908813,1.97898499 C111.908813,1.21635053 111.072937,0.746685064 110.421081,1.14493952 C98.3580932,8.51127241 91,21.6252863 91,35.7591973 L91,70.8293879 C91,72.3857841 92.2625123,73.6482964 93.8198242,73.6482964 L98.6538086,73.6482964 C97.0974121,73.6482964 95.8348998,72.3857841 95.8348998,70.8293879 Z" id="Path" fill="#E8E9EA"></path>
                </g>
            </g>
        </g>
    </g>
</svg>