<?xml version="1.0" encoding="UTF-8"?>
<svg width="21px" height="21px" viewBox="0 0 21 21" version="1.1" xmlns="http://www.w3.org/2000/svg" xmlns:xlink="http://www.w3.org/1999/xlink">
    <!-- Generator: Sketch 53.2 (72643) - https://sketchapp.com -->
    <title>icons8-edit_user</title>
    <desc>Created with Sketch.</desc>
    <g id="Symbols" stroke="none" stroke-width="1" fill="none" fill-rule="evenodd">
        <g id="tab_profile_off" transform="translate(-36.000000, -14.000000)" fill="#687289" fill-rule="nonzero">
            <g id="icons8-edit_user" transform="translate(36.000000, 14.000000)">
                <path d="M9,0 C6.794,0 5,1.794 5,4 C5,6.206 6.794,8 9,8 C11.206,8 13,6.206 13,4 C13,1.794 11.206,0 9,0 Z M9,11 C5.859,11 0,12.545 0,15.5 L0,18 L10.171875,18 L15.597656,12.572266 C13.616656,11.535266 10.844,11 9,11 Z M19.207031,12 C19.079156,12 18.951016,12.048984 18.853516,12.146484 L17.853516,13.146484 L19.853516,15.146484 L20.853516,14.146484 C21.048516,13.951484 21.048516,13.634453 20.853516,13.439453 L19.560547,12.146484 C19.462547,12.048984 19.334906,12 19.207031,12 Z M17.146484,13.853516 L12,19 L12,21 L14,21 L19.146484,15.853516 L17.146484,13.853516 Z" id="Shape"></path>
            </g>
        </g>
    </g>
</svg>