<?xml version="1.0" encoding="UTF-8"?>
<svg width="23px" height="22px" viewBox="0 0 23 22" version="1.1" xmlns="http://www.w3.org/2000/svg" xmlns:xlink="http://www.w3.org/1999/xlink">
    <!-- Generator: Sketch 53.2 (72643) - https://sketchapp.com -->
    <title>Shape</title>
    <desc>Created with Sketch.</desc>
    <g id="Symbols" stroke="none" stroke-width="1" fill="none" fill-rule="evenodd">
        <g id="tab_home_off" transform="translate(-35.000000, -14.000000)" fill="#687289" fill-rule="nonzero">
            <g id="icons8-shopping" transform="translate(35.000000, 14.000000)">
                <path d="M11.027344,0 C10.699344,0 10.392078,0.1616406 10.205078,0.4316406 L5.6679688,7 L1.0019531,7 C0.6889531,7 0.3950781,7.1455313 0.2050781,7.3945312 C0.0170781,7.6425312 -0.04684375,7.964625 0.0351562,8.265625 L2.5957031,17.53125 C2.8347031,18.39525 3.6274375,19 4.5234375,19 L8,19 L8,14 C8,11.791 9.791,10 12,10 L21.484375,10 L21.962891,8.267578 C22.045891,7.9665781 21.982922,7.6425313 21.794922,7.3945312 C21.604922,7.1455313 21.310047,7 20.998047,7 L16.339844,7 L11.853516,0.4355469 C11.667516,0.1635469 11.36025,0.001 11.03125,0 L11.027344,0 Z M11.023438,2.765625 L13.916016,7 L8.0976562,7 L11.023438,2.765625 Z M12,12 C10.897,12 10,12.897 10,14 L23,14 C23,12.897 22.103,12 21,12 L12,12 Z M10,16 L10,20 C10,21.103 10.897,22 12,22 L21,22 C22.103,22 23,21.103 23,20 L23,16 L10,16 Z" id="Shape"></path>
            </g>
        </g>
    </g>
</svg>