<?xml version="1.0" encoding="UTF-8"?>
<svg width="25px" height="16px" viewBox="0 0 25 16" version="1.1" xmlns="http://www.w3.org/2000/svg" xmlns:xlink="http://www.w3.org/1999/xlink">
    <!-- Generator: Sketch 53.2 (72643) - https://sketchapp.com -->
    <title>icons8-leaderboard_filled</title>
    <desc>Created with Sketch.</desc>
    <g id="Symbols" stroke="none" stroke-width="1" fill="none" fill-rule="evenodd">
        <g id="Others-/-recipe_fav" transform="translate(-15.000000, -321.000000)" fill="#687289" fill-rule="nonzero">
            <g id="icons8-leaderboard_filled" transform="translate(15.000000, 321.000000)">
                <path d="M23.5,6.54071986 L17,6.54071986 L17,1.50939689 C17,0.678049259 16.326172,0 15.5,0 L9.5,0 C8.673828,0 8,0.678049259 8,1.50939689 L8,4.52819068 L1.5,4.52819068 C0.673828,4.52819068 0,5.20623993 0,6.03758757 L0,15.4968677 C0,15.7739839 0.2246095,16 0.5,16 L24.5,16 C24.777344,16 25,15.7739839 25,15.4968677 L25,8.05011676 C25,7.21876912 24.326172,6.54071986 23.5,6.54071986 Z M6,11.0689105 L3.5,11.0689105 C3.5,10.868444 3.5,10.7171109 3.5507815,10.5657782 C3.5996095,10.4144456 3.6503905,10.263113 3.699219,10.1137456 C3.75,9.96241243 3.8496095,9.8110798 4,9.71084628 C4.0996095,9.55951365 4.25,9.45928014 4.4003905,9.3079475 L4.75,9.00528223 C4.8496095,8.90504872 4.9003905,8.85394909 4.949219,8.8048152 C5,8.75568131 5.0507815,8.65348257 5.0996095,8.60434868 C5.1503905,8.55324905 5.1503905,8.45301554 5.1503905,8.40191642 C5.1503905,8.30168291 5.1503905,8.25254902 5.1503905,8.10121638 C5.1503905,7.74941672 5,7.59808408 4.75,7.59808408 C4.6503905,7.59808408 4.5507815,7.59808408 4.5,7.64721797 C4.449219,7.69831709 4.4003905,7.74941672 4.3496095,7.79855061 C4.3007815,7.84965023 4.3007815,7.94988324 4.3007815,8.05011676 C4.3007815,8.15035027 4.3007815,8.25254902 4.3007815,8.35278253 L3.5,8.35278253 L3.5,8.20144939 C3.5,7.79855061 3.5996095,7.54698446 3.8007815,7.34651794 C4,7.14408568 4.3007815,7.04385216 4.75,7.04385216 C5.1503905,7.04385216 5.449219,7.14408568 5.6503905,7.34651794 C5.8496095,7.54698446 5.949219,7.79855061 5.949219,8.15035027 C5.949219,8.30168291 5.949219,8.40191642 5.9003905,8.50411517 C5.9003905,8.60434868 5.8496095,8.70458169 5.8007815,8.8048152 C5.75,8.90701395 5.699219,9.00724746 5.5996095,9.10748098 C5.5,9.20771399 5.4003905,9.3079475 5.3007815,9.41014625 L4.8496095,9.86217942 C4.75,9.96241243 4.6503905,10.0626459 4.5507815,10.1628795 C4.5507815,10.263113 4.5,10.3653117 4.5,10.4144456 L6,10.4144456 L6,11.0689105 Z M13,6.54071986 L12.199219,6.54071986 L12.199219,3.72239311 L11.4003905,3.72239311 L11.4003905,3.17012642 L11.449219,3.17012642 C11.699219,3.17012642 11.949219,3.1190273 12.0996095,3.01879378 C12.25,2.91856027 12.3496095,2.76722764 12.4003905,2.51566149 L13,2.51566149 L13,6.54071986 Z M21.5,12.3778409 C21.449219,12.5291735 21.4003905,12.6294071 21.3007815,12.7807397 C21.199219,12.8809732 21.0507815,12.9812062 20.9003905,13.0814397 C20.75,13.1325394 20.5,13.1816732 20.25,13.1816732 C19.8496095,13.1816732 19.5507815,13.0814397 19.4003905,12.8790075 C19.201172,12.6785409 19.0996095,12.3758752 19.0996095,11.9749416 L19.9003905,11.9749416 C19.8007815,12.124309 19.8496095,12.2756422 19.9003905,12.4269748 C19.951172,12.5272083 20.0996095,12.6274413 20.25,12.6274413 C20.3496095,12.6274413 20.449219,12.6274413 20.5,12.5763422 C20.5507815,12.5272083 20.5996095,12.4761087 20.6503905,12.4269748 C20.699219,12.3778409 20.699219,12.2756422 20.699219,12.2265078 C20.699219,12.1262748 20.699219,12.0751751 20.699219,11.9749416 C20.699219,11.8747086 20.699219,11.7744751 20.699219,11.7233755 C20.699219,11.6231425 20.6503905,11.5720428 20.5996095,11.5229089 C20.5507815,11.4718093 20.5,11.4207102 20.449219,11.3715763 C20.4003905,11.3204767 20.298828,11.3204767 20.199219,11.3204767 L19.949219,11.3204767 L19.949219,10.7662453 L20.199219,10.7662453 C20.298828,10.7662453 20.3496095,10.7662453 20.4003905,10.7171109 C20.449219,10.6660118 20.5,10.6149121 20.548828,10.5657782 C20.5996095,10.5146791 20.5996095,10.4655447 20.6503905,10.363346 C20.6503905,10.263113 20.699219,10.2139786 20.699219,10.1117798 C20.699219,9.91131331 20.6503905,9.75998067 20.5996095,9.71084628 C20.548828,9.60864754 20.449219,9.60864754 20.298828,9.60864754 C20.199219,9.60864754 20.1503905,9.60864754 20.0996095,9.65974716 C20.048828,9.71084628 20,9.75998067 19.949219,9.8110798 C19.9003905,9.86217942 19.9003905,9.96241243 19.9003905,10.0115468 C19.9003905,10.1117798 19.9003905,10.1628795 19.9003905,10.263113 L19.1503905,10.263113 C19.1503905,9.86021368 19.25,9.55951365 19.451172,9.35708139 C19.6503905,9.15661486 19.949219,9.05638135 20.3007815,9.05638135 C20.6503905,9.05638135 20.951172,9.15661486 21.1503905,9.3079475 C21.3496095,9.45928014 21.451172,9.71084628 21.451172,10.1137456 C21.451172,10.3653117 21.4003905,10.5657782 21.3007815,10.7171109 C21.199219,10.868444 21.0507815,10.968677 20.8496095,11.0178114 C21.0996095,11.0689105 21.298828,11.1691441 21.4003905,11.3204767 C21.5,11.4718093 21.5507815,11.7233755 21.5507815,11.9749416 C21.5507815,12.1262748 21.5507815,12.2265078 21.5,12.3778409 Z" id="Shape"></path>
            </g>
        </g>
    </g>
</svg>