<?xml version="1.0" encoding="utf-8"?>
<svg xmlns="http://www.w3.org/2000/svg" viewBox="0 0 24 24" fill="#ffffff"><path d="M 16 2 C 16 2 13 5.09375 13 7 C 12.128906 5.933594 11 5 11 5 C 11 5 10 8.09375 10 10 C 9.128906 8.933594 8 8 8 8 C 8 8 7 11.09375 7 13 C 6.128906 11.933594 5 11 5 11 C 5 11 4 14.09375 4 16 C 4 17.023438 4.3125 17.535156 4.78125 17.78125 L 2.28125 20.28125 L 3.71875 21.71875 L 6.21875 19.21875 C 6.464844 19.6875 6.976563 20 8 20 C 9.90625 20 13 19 13 19 C 13 19 12.066406 17.871094 11 17 C 12.90625 17 16 16 16 16 C 16 16 15.066406 14.871094 14 14 C 15.90625 14 19 13 19 13 C 19 13 18.066406 11.871094 17 11 C 18.90625 11 22 8 22 8 C 22 8 20.71875 7.511719 19.46875 7.21875 C 20.933594 5.8125 21 3 21 3 C 21 3 18.191406 2.980469 16.78125 4.46875 C 16.484375 3.238281 16 2 16 2 Z M 14 8.875 C 14.300781 8.980469 14.636719 9 15 9 C 15 9.363281 15.019531 9.699219 15.125 10 C 15.085938 9.996094 15.039063 10 15 10 C 14.558594 10 14.140625 10.097656 13.75 10.25 C 13.902344 9.859375 14 9.441406 14 9 C 14 8.960938 14.003906 8.914063 14 8.875 Z M 11 11.875 C 11.300781 11.980469 11.636719 12 12 12 C 12 12.363281 12.019531 12.699219 12.125 13 C 12.085938 12.996094 12.039063 13 12 13 C 11.558594 13 11.140625 13.097656 10.75 13.25 C 10.902344 12.859375 11 12.441406 11 12 C 11 11.960938 11.003906 11.914063 11 11.875 Z M 8 14.875 C 8.300781 14.980469 8.636719 15 9 15 C 9 15.363281 9.019531 15.699219 9.125 16 C 9.085938 15.996094 9.039063 16 9 16 C 8.558594 16 8.140625 16.097656 7.75 16.25 C 7.902344 15.859375 8 15.441406 8 15 C 8 14.960938 8.003906 14.914063 8 14.875 Z" fill="#ffffff"/></svg>
